<?xml version="1.0" encoding="UTF-8" standalone="no"?>
<svg width="126px" height="126px" viewBox="0 0 126 126" version="1.1" xmlns="http://www.w3.org/2000/svg" xmlns:xlink="http://www.w3.org/1999/xlink" xmlns:sketch="http://www.bohemiancoding.com/sketch/ns">
    <!-- Generator: Sketch 3.5.1 (25234) - http://www.bohemiancoding.com/sketch -->
    <title>Artboard</title>
    <desc>Created with Sketch.</desc>
    <defs>
        <path id="path-1" d="M120.706105,90.8195764 C122.470286,84.7357713 122.848274,78.2459381 122.945311,71.9476275 C123.049004,65.22936 123.051807,58.4693056 122.528788,51.764967 C122.087042,46.0990295 121.385364,40.2631592 119.426059,34.891122 C118.089261,31.2243332 115.867571,28.3535822 113.068214,25.6444068 C106.571994,19.3579358 98.6615585,14.4072485 90.7535748,10.0802288 C83.4989263,6.10978939 75.6774701,2.19715505 67.5274196,0.439325023 C59.9452277,-1.19558226 51.9209398,2.05647293 44.9861278,4.87220462 C35.7101687,8.64032639 26.6591111,13.3611865 18.5188693,19.1900923 C15.1901876,21.5757685 11.9172057,24.1902273 9.27268687,27.3294582 C6.090086,31.1080267 4.86118519,35.6753203 4.08033573,40.4637357 C2.98735667,47.1701637 3.06792885,53.9155926 3.00802519,60.6829596 C2.95092404,67.1846325 3.18773617,73.7225205 4.06737412,80.1716116 C4.75504011,85.2117922 5.6991358,90.7788343 8.49078647,95.1225688 C10.394742,98.0800273 13.0434646,100.562858 15.7132061,102.829093 C22.8280793,108.866585 30.9851362,113.785236 39.2991336,118.004655 C45.981019,121.395302 53.5351858,125.175264 61.117728,125.923943 C64.8878051,126.29689 68.7230406,125.233069 72.3067507,124.153577 C76.7592391,122.811874 81.0964743,121.091652 85.3345706,119.191399 C93.0477799,115.735285 100.571469,111.659682 107.443225,106.737201 C113.025125,102.739948 119.10342,97.8091098 120.706105,90.8195764 C122.542801,84.4853989 120.383817,92.2260494 120.706105,90.8195764"></path>
    </defs>
    <g id="Page-1" stroke="none" stroke-width="1" fill="none" fill-rule="evenodd" sketch:type="MSPage">
        <g id="Artboard" sketch:type="MSArtboardGroup">
            <mask id="mask-2" sketch:name="Imported Layers" fill="white">
                <use xlink:href="#path-1"></use>
            </mask>
            <g id="Imported-Layers">
                <use fill="#000000" fill-rule="evenodd" sketch:type="MSShapeGroup" xlink:href="#path-1"></use>
                <use fill="none" xlink:href="#path-1"></use>
            </g>
        </g>
    </g>
</svg>